# xmcd CD database file
#
# Track frame offsets:
#	150
#	17763
#	37348
#	53723
#	70580
#	85308
#	107675
#	126028
#	143918
#	160830
#
# Disc length: 2381 seconds
#
# Revision: 5
# Processed by: cddbd v1.5.2PL0 Copyright (c) Steve Scherf et al.
# Submitted via: CDex 1.51
#
DISCID=83094b0a
DTITLE=Various Artist - Christmas In Nashville
DYEAR=1992
DGENRE=Christmas
TTITLE0=Janie Fricke - Angels We Have Heard On High
TTITLE1=Lynn Anderson - The First Noel
TTITLE2=Donna Fargo - O Holy Night
TTITLE3=Kitty Wells - Away In A Manger
TTITLE4=Lynn Anderson - Joy The The World
TTITLE5=Janie Fricke - It Came Upon A Midnight Clear
TTITLE6=Jean Shepard - Hark! The Herald Angels Sing
TTITLE7=Donna Fargo - O Little Town Of Bethlehem
TTITLE8=Jean Shepard - O Come All Ye Faithful
TTITLE9=Kitty Wells - Silent Night
EXTD=YEAR: 1992
EXTT0=
EXTT1=
EXTT2=
EXTT3=
EXTT4=
EXTT5=
EXTT6=
EXTT7=
EXTT8=
EXTT9=
PLAYORDER=
